<svg width="19" height="23" viewBox="0 0 19 23" fill="none" xmlns="http://www.w3.org/2000/svg">
<path d="M15.56 9.492L14.3415 8.61718L14.3372 8.62319L15.56 9.492ZM13.348 11.06L12.8573 9.64252L8.12633 11.2802L12.9784 12.5138L13.348 11.06ZM16.064 12.684L14.94 13.6773L14.9458 13.6839L14.9517 13.6904L16.064 12.684ZM16.456 18.424L17.7422 19.1957L17.7464 19.1888L17.7505 19.1818L16.456 18.424ZM14.608 20.188L15.3285 21.5036L14.608 20.188ZM12.032 21.14L11.7097 19.675L11.7034 19.6764L12.032 21.14ZM2.12 20.244H0.62V21.2781L1.58652 21.6459L2.12 20.244ZM2.12 14.7L2.82871 13.378L0.62 12.1939V14.7H2.12ZM8.336 16.156V17.656H8.35179L8.36757 17.6557L8.336 16.156ZM5.928 13.72L4.42803 13.7112L4.4192 15.22H5.928V13.72ZM5.956 8.932V7.432H4.46475L4.45603 8.92323L5.956 8.932ZM8.728 8.932L8.78251 7.43299L8.75526 7.432H8.728V8.932ZM5.2 7.336L4.76428 5.90068L4.76428 5.90068L5.2 7.336ZM2.456 8.568H0.956V11.3155L3.26714 9.82977L2.456 8.568ZM2.456 3.164L1.68809 1.87547L0.956 2.31176V3.164H2.456ZM14.272 2.884L13.4439 4.13467L13.4498 4.13858L13.4557 4.14244L14.272 2.884ZM14.844 6.972C14.844 7.63085 14.6694 8.16049 14.3415 8.61719L16.7785 10.3668C17.4959 9.36751 17.844 8.21715 17.844 6.972H14.844ZM14.3372 8.62319C14.0451 9.03438 13.5875 9.38976 12.8573 9.64252L13.8387 12.4775C15.0498 12.0582 16.0669 11.3683 16.7828 10.3608L14.3372 8.62319ZM12.9784 12.5138C13.8065 12.7243 14.4426 13.1145 14.94 13.6773L17.188 11.6907C16.2667 10.6482 15.0922 9.95572 13.7176 9.60625L12.9784 12.5138ZM14.9517 13.6904C15.3671 14.1494 15.628 14.7852 15.628 15.736H18.628C18.628 14.1855 18.1796 12.7866 17.1763 11.6776L14.9517 13.6904ZM15.628 15.736C15.628 16.5389 15.4549 17.1649 15.1615 17.6662L17.7505 19.1818C18.3531 18.1524 18.628 16.9865 18.628 15.736H15.628ZM15.1698 17.6523C14.8625 18.1644 14.4445 18.5673 13.8875 18.8724L15.3285 21.5036C16.3395 20.95 17.1535 20.177 17.7422 19.1957L15.1698 17.6523ZM13.8875 18.8724C13.2368 19.2287 12.5135 19.4982 11.7097 19.675L12.3543 22.605C13.4172 22.3711 14.4112 22.006 15.3285 21.5036L13.8875 18.8724ZM11.7034 19.6764C10.9117 19.8542 10.0248 19.948 9.036 19.948V22.948C10.2126 22.948 11.323 22.8365 12.3606 22.6036L11.7034 19.6764ZM9.036 19.948C6.69728 19.948 4.57493 19.5732 2.65348 18.8421L1.58652 21.6459C3.88373 22.5201 6.37206 22.948 9.036 22.948V19.948ZM3.62 20.244V14.7H0.62V20.244H3.62ZM1.41129 16.022C3.468 17.1246 5.78933 17.656 8.336 17.656V14.656C6.216 14.656 4.39334 14.2168 2.82871 13.378L1.41129 16.022ZM8.36757 17.6557C9.33135 17.6354 10.2706 17.5039 11.0186 17.1181C11.4124 16.915 11.7963 16.6191 12.0792 16.1933C12.3689 15.7572 12.496 15.2694 12.496 14.784H9.496C9.496 14.7373 9.51228 14.6357 9.58033 14.5332C9.64153 14.4411 9.69293 14.4263 9.64339 14.4519C9.5888 14.48 9.46158 14.5306 9.2255 14.5745C8.99329 14.6177 8.68985 14.6482 8.30443 14.6563L8.36757 17.6557ZM12.496 14.784C12.496 13.9586 12.1281 13.1935 11.3786 12.7188C10.7447 12.3173 9.98597 12.22 9.316 12.22V15.22C9.52146 15.22 9.65839 15.2367 9.74116 15.2542C9.82531 15.2719 9.82163 15.2838 9.77342 15.2532C9.71511 15.2163 9.62807 15.1396 9.56362 15.0171C9.50149 14.8991 9.496 14.8064 9.496 14.784H12.496ZM9.316 12.22H5.928V15.22H9.316V12.22ZM7.42797 13.7288L7.45597 8.94077L4.45603 8.92323L4.42803 13.7112L7.42797 13.7288ZM5.956 10.432H8.728V7.432H5.956V10.432ZM8.67349 10.431C9.29307 10.4535 10.0279 10.3913 10.6547 10.0152C11.4109 9.56156 11.768 8.80349 11.768 8.008H8.768C8.768 7.97366 8.77566 7.86326 8.84858 7.7267C8.92476 7.58403 9.03037 7.49129 9.11126 7.44276C9.1805 7.40121 9.20614 7.40664 9.14209 7.41789C9.07971 7.42886 8.96473 7.43962 8.78251 7.43299L8.67349 10.431ZM11.768 8.008C11.768 7.55793 11.6528 7.0965 11.379 6.68076C11.1108 6.27352 10.7468 5.99514 10.3784 5.80868C9.68467 5.45752 8.83401 5.36 8 5.36V8.36C8.31879 8.36 8.56266 8.38047 8.74269 8.41084C8.92667 8.44189 9.00768 8.47727 9.02358 8.48532C9.03321 8.4902 8.95268 8.45098 8.87349 8.33074C8.78872 8.202 8.768 8.0754 8.768 8.008H11.768ZM8 5.36C6.99154 5.36 5.90732 5.55368 4.76428 5.90068L5.63572 8.77132C6.58334 8.48365 7.3658 8.36 8 8.36V5.36ZM4.76428 5.90068C3.60855 6.25153 2.56338 6.71576 1.64486 7.30623L3.26714 9.82977C3.91662 9.41224 4.70079 9.05514 5.63572 8.77132L4.76428 5.90068ZM3.956 8.568V3.164H0.956V8.568H3.956ZM3.22391 4.45253C4.80083 3.51275 6.71856 3.012 9.036 3.012V0.0119991C6.2761 0.0119991 3.80717 0.612579 1.68809 1.87547L3.22391 4.45253ZM9.036 3.012C10.9309 3.012 12.3673 3.42181 13.4439 4.13467L15.1001 1.63333C13.414 0.516854 11.3598 0.0119991 9.036 0.0119991V3.012ZM13.4557 4.14244C14.3575 4.72742 14.844 5.58415 14.844 6.972H17.844C17.844 4.70118 16.9491 2.83258 15.0883 1.62556L13.4557 4.14244Z" fill="#EB2629"/>
</svg>
