<svg width="19" height="23" viewBox="0 0 19 23" fill="none" xmlns="http://www.w3.org/2000/svg">
<path d="M3.352 1.96V0.46H1.93764L1.85459 1.87192L3.352 1.96ZM16.288 1.96H17.788V0.46H16.288V1.96ZM16.288 7.224L16.2823 8.72399L17.788 8.72976V7.224H16.288ZM8.98 7.196L8.98575 5.69601L7.58515 5.69064L7.48392 7.08759L8.98 7.196ZM8.84 9.128L7.34392 9.01959L7.20821 10.8924L9.06471 10.6111L8.84 9.128ZM15.224 10.416L14.3068 11.6029L15.224 10.416ZM16.316 18.004L15.0153 17.2568L15.0093 17.2673L15.0035 17.2779L16.316 18.004ZM14.3 20.048L13.5619 18.7422L14.3 20.048ZM2.036 20.16H0.536V21.1129L1.39864 21.5179L2.036 20.16ZM2.036 14.896L2.86805 13.6479L0.536 12.0932V14.896H2.036ZM4.416 15.904L4.02604 17.3524L4.04231 17.3568L4.05867 17.3608L4.416 15.904ZM9.708 15.848L10.3287 17.2135L10.3457 17.2058L10.3624 17.1977L9.708 15.848ZM6.88 12.824V14.324H6.89119L6.90239 14.3238L6.88 12.824ZM2.68 13.384L1.18259 13.2959L1.05627 15.4434L3.11501 14.8195L2.68 13.384ZM3.352 3.46H16.288V0.46H3.352V3.46ZM14.788 1.96V7.224H17.788V1.96H14.788ZM16.2937 5.72401L8.98575 5.69601L8.97425 8.69599L16.2823 8.72399L16.2937 5.72401ZM7.48392 7.08759L7.34392 9.01959L10.3361 9.23641L10.4761 7.30441L7.48392 7.08759ZM9.06471 10.6111C9.62294 10.5265 10.1063 10.488 10.52 10.488V7.488C9.92567 7.488 9.28906 7.54284 8.61529 7.64493L9.06471 10.6111ZM10.52 10.488C12.168 10.488 13.3918 10.8959 14.3068 11.6029L16.1412 9.22907C14.5922 8.03212 12.68 7.488 10.52 7.488V10.488ZM14.3068 11.6029C15.0606 12.1854 15.572 13.1748 15.572 14.924H18.572C18.572 12.5665 17.8514 10.5506 16.1412 9.22907L14.3068 11.6029ZM15.572 14.924C15.572 15.8808 15.3689 16.6414 15.0153 17.2568L17.6167 18.7512C18.2711 17.6119 18.572 16.3192 18.572 14.924H15.572ZM15.0035 17.2779C14.65 17.9168 14.175 18.3956 13.5619 18.7422L15.0381 21.3538C16.1423 20.7297 17.0113 19.8458 17.6286 18.7301L15.0035 17.2779ZM13.5619 18.7422C12.8341 19.1535 12.0476 19.4564 11.1968 19.649L11.8592 22.575C12.987 22.3196 14.0486 21.9131 15.0381 21.3538L13.5619 18.7422ZM11.1968 19.649C10.3284 19.8456 9.37658 19.948 8.336 19.948V22.948C9.57275 22.948 10.7489 22.8264 11.8592 22.575L11.1968 19.649ZM8.336 19.948C6.1478 19.948 4.27162 19.5523 2.67336 18.8021L1.39864 21.5179C3.45905 22.485 5.78287 22.948 8.336 22.948V19.948ZM3.536 20.16V14.896H0.536V20.16H3.536ZM1.20395 16.1441C1.99422 16.6709 2.95048 17.0628 4.02604 17.3524L4.80596 14.4556C3.94019 14.2225 3.30978 13.9424 2.86805 13.6479L1.20395 16.1441ZM4.05867 17.3608C5.15439 17.6296 6.23585 17.768 7.3 17.768V14.768C6.49749 14.768 5.65628 14.6638 4.77333 14.4472L4.05867 17.3608ZM7.3 17.768C8.41254 17.768 9.44919 17.6133 10.3287 17.2135L9.0873 14.4825C8.73481 14.6427 8.16613 14.768 7.3 14.768V17.768ZM10.3624 17.1977C10.8376 16.9673 11.2929 16.635 11.6286 16.1569C11.9742 15.6648 12.132 15.104 12.132 14.532H9.132C9.132 14.5424 9.13082 14.5308 9.1386 14.5051C9.1467 14.4784 9.15957 14.4527 9.17338 14.4331C9.20105 14.3936 9.19437 14.43 9.05359 14.4983L10.3624 17.1977ZM12.132 14.532C12.132 13.956 11.9732 13.3874 11.6168 12.89C11.2705 12.4068 10.8014 12.079 10.3155 11.8578C9.3841 11.4338 8.17708 11.3045 6.85761 11.3242L6.90239 14.3238C8.08425 14.3062 8.75323 14.4428 9.07253 14.5882C9.21189 14.6516 9.21182 14.6843 9.17822 14.6375C9.13451 14.5765 9.132 14.52 9.132 14.532H12.132ZM6.88 11.324C5.19551 11.324 3.64484 11.5243 2.24499 11.9485L3.11501 14.8195C4.17916 14.4971 5.42849 14.324 6.88 14.324V11.324ZM4.17741 13.4721L4.84941 2.04808L1.85459 1.87192L1.18259 13.2959L4.17741 13.4721Z" fill="#EB2629"/>
</svg>
