<svg width="21" height="23" viewBox="0 0 21 23" fill="none" xmlns="http://www.w3.org/2000/svg">
<path d="M8.196 9.688L6.73065 9.36745L6.01515 12.6383L8.93227 10.9949L8.196 9.688ZM17.184 10.164L16.212 11.3065L16.222 11.3149L17.184 10.164ZM16.82 19.74L15.9105 18.5472L16.82 19.74ZM2.68 6.916L4.06994 7.48003L4.07272 7.47309L2.68 6.916ZM4.836 3.808L5.79858 4.9584L4.836 3.808ZM7.888 2.1L8.36234 3.52302L8.36932 3.5207L8.37627 3.51831L7.888 2.1ZM17.436 2.772H18.936V1.84495L18.1068 1.43036L17.436 2.772ZM17.436 7.784L16.6691 9.07311L18.936 10.4218V7.784H17.436ZM9.764 7.196L10.5312 8.48494L10.5424 8.47826L10.5535 8.4714L9.764 7.196ZM8.168 13.776L7.43954 12.4648L6.51897 12.9762L6.68728 14.0157L8.168 13.776ZM12.368 16.24L13.3118 17.4059H13.3118L12.368 16.24ZM8.93227 10.9949C10.023 10.3804 11.2237 10.068 12.564 10.068V7.068C10.7309 7.068 9.01965 7.5023 7.45973 8.38113L8.93227 10.9949ZM12.564 10.068C14.0806 10.068 15.264 10.4999 16.212 11.3065L18.156 9.02151C16.6027 7.70007 14.7061 7.068 12.564 7.068V10.068ZM16.222 11.3149C17.0623 12.0173 17.56 13.0573 17.56 14.672H20.56C20.56 12.3667 19.807 10.4014 18.146 9.01308L16.222 11.3149ZM17.56 14.672C17.56 16.5454 16.9579 17.7485 15.9105 18.5472L17.7295 20.9328C19.6687 19.4541 20.56 17.2786 20.56 14.672H17.56ZM15.9105 18.5472C14.7261 19.4503 13.1968 19.948 11.22 19.948V22.948C13.7232 22.948 15.9272 22.3071 17.7295 20.9328L15.9105 18.5472ZM11.22 19.948C8.37335 19.948 6.50581 19.186 5.32674 17.9149C4.12792 16.6225 3.396 14.5423 3.396 11.396H0.396C0.396 14.951 1.21808 17.8968 3.12726 19.9551C5.05619 22.0346 7.85065 22.948 11.22 22.948V19.948ZM3.396 11.396C3.396 9.84896 3.63415 8.55389 4.06992 7.48002L1.29008 6.35197C0.680518 7.85411 0.396 9.54571 0.396 11.396H3.396ZM4.07272 7.47309C4.51985 6.35524 5.10568 5.53818 5.79858 4.9584L3.87342 2.65759C2.73698 3.60849 1.88548 4.86342 1.28729 6.35891L4.07272 7.47309ZM5.79858 4.9584C6.57054 4.31248 7.42259 3.83627 8.36234 3.52302L7.41366 0.676975C6.11341 1.11039 4.9308 1.77285 3.87342 2.65759L5.79858 4.9584ZM8.37627 3.51831C9.34501 3.1848 10.4014 3.012 11.556 3.012V0.0119991C10.0973 0.0119991 8.70832 0.231194 7.39973 0.681694L8.37627 3.51831ZM11.556 3.012C13.6076 3.012 15.3299 3.396 16.7652 4.11364L18.1068 1.43036C16.1821 0.468003 13.9844 0.0119991 11.556 0.0119991V3.012ZM15.936 2.772V7.784H18.936V2.772H15.936ZM18.2029 6.49489C16.5188 5.49295 14.7351 4.968 12.872 4.968V7.968C14.1449 7.968 15.4038 8.32038 16.6691 9.07311L18.2029 6.49489ZM12.872 4.968C11.411 4.968 10.0719 5.24121 8.97447 5.9206L10.5535 8.4714C11.0241 8.18012 11.757 7.968 12.872 7.968V4.968ZM8.99677 5.90706C7.74674 6.65113 7.04922 7.91112 6.73065 9.36745L9.66135 10.0085C9.86544 9.07555 10.2133 8.6742 10.5312 8.48494L8.99677 5.90706ZM6.68728 14.0157C6.87143 15.1531 7.25507 16.2107 7.9832 16.9989C8.75526 17.8346 9.77416 18.216 10.884 18.216V15.216C10.5005 15.216 10.3201 15.1074 10.1868 14.9631C10.0096 14.7713 9.78191 14.3589 9.64872 13.5363L6.68728 14.0157ZM10.884 18.216C11.7589 18.216 12.6056 17.9776 13.3118 17.4059L11.4242 15.0741C11.3464 15.1371 11.2038 15.216 10.884 15.216V18.216ZM13.3118 17.4059C14.0974 16.7699 14.456 15.8799 14.456 14.924H11.456C11.456 14.9766 11.4514 15.0116 11.4473 15.0324C11.4434 15.0525 11.4396 15.0608 11.4395 15.0611C11.4393 15.0615 11.4395 15.061 11.4401 15.0601C11.4403 15.0596 11.4406 15.0592 11.4408 15.0589C11.441 15.0587 11.441 15.0586 11.4411 15.0585C11.4412 15.0584 11.4412 15.0583 11.4412 15.0583C11.4412 15.0583 11.4412 15.0584 11.4411 15.0585C11.441 15.0587 11.4408 15.0589 11.4405 15.0592C11.4401 15.0597 11.4392 15.0606 11.438 15.0618C11.4356 15.0643 11.4312 15.0685 11.4242 15.0741L13.3118 17.4059ZM14.456 14.924C14.456 13.9675 14.1334 13.0175 13.2947 12.3585C12.5249 11.7537 11.5436 11.576 10.604 11.576V14.576C11.2324 14.576 11.4271 14.7063 11.4413 14.7175C11.4427 14.7186 11.4386 14.7154 11.4331 14.7082C11.4276 14.7011 11.4264 14.6973 11.4281 14.7013C11.4318 14.71 11.456 14.7728 11.456 14.924H14.456ZM10.604 11.576C9.51357 11.576 8.45253 11.902 7.43954 12.4648L8.89646 15.0872C9.56347 14.7167 10.1264 14.576 10.604 14.576V11.576Z" fill="#EB2629"/>
</svg>
