<svg width="17" height="23" viewBox="0 0 17 23" fill="none" xmlns="http://www.w3.org/2000/svg">
<path d="M6.964 1.96V0.46H6.68738L6.42895 0.558672L6.964 1.96ZM11.668 1.96H13.168V0.46H11.668V1.96ZM11.668 15.708H10.168V17.208H11.668V15.708ZM14.608 15.708H16.108V14.208H14.608V15.708ZM14.608 21V22.5H16.108V21H14.608ZM2.176 21H0.676V22.5H2.176V21ZM2.176 15.708V14.208H0.676V15.708H2.176ZM5.424 15.708V17.208H6.924V15.708H5.424ZM5.424 8.064H6.924V5.9041L4.90012 6.65846L5.424 8.064ZM2.344 9.212H0.844V11.3719L2.86788 10.6175L2.344 9.212ZM2.344 3.724L1.80895 2.32267L0.844 2.69111V3.724H2.344ZM6.964 3.46H11.668V0.46H6.964V3.46ZM10.168 1.96V15.708H13.168V1.96H10.168ZM11.668 17.208H14.608V14.208H11.668V17.208ZM13.108 15.708V21H16.108V15.708H13.108ZM14.608 19.5H2.176V22.5H14.608V19.5ZM3.676 21V15.708H0.676V21H3.676ZM2.176 17.208H5.424V14.208H2.176V17.208ZM6.924 15.708V8.064H3.924V15.708H6.924ZM4.90012 6.65846L1.82012 7.80646L2.86788 10.6175L5.94788 9.46954L4.90012 6.65846ZM3.844 9.212V3.724H0.844V9.212H3.844ZM2.87905 5.12533L7.49905 3.36133L6.42895 0.558672L1.80895 2.32267L2.87905 5.12533Z" fill="#EB2629"/>
</svg>
