<svg width="21" height="23" viewBox="0 0 21 23" fill="none" xmlns="http://www.w3.org/2000/svg">
<path d="M4.5 3.22L5.47619 4.35888L5.47751 4.35775L4.5 3.22ZM16.148 3.164L15.1972 4.32424L15.2051 4.33061L16.148 3.164ZM18.164 6.972L19.6637 7.00261L19.6639 6.99148L18.164 6.972ZM17.548 9.24L16.2939 8.41701L16.2939 8.41702L17.548 9.24ZM15.812 10.892L14.987 9.63924L12.8765 11.0291L15.1074 12.2162L15.812 10.892ZM16.708 19.796L17.6278 20.9809L17.63 20.9792L16.708 19.796ZM3.884 19.824L2.95087 20.9985L2.95868 21.0046L3.884 19.824ZM2.652 13.104L3.89561 13.9427L3.90006 13.9361L3.90444 13.9295L2.652 13.104ZM4.612 11.256L5.32123 12.5777L7.34467 11.492L5.53732 10.0754L4.612 11.256ZM10.66 13.832L11.1726 12.4223L11.1409 12.4108L11.1086 12.4007L10.66 13.832ZM8.728 13.216L9.39883 11.8744L8.29894 11.3244L7.54397 12.2951L8.728 13.216ZM8.14 14.952H6.64V14.9798L6.64103 15.0075L8.14 14.952ZM8.756 16.24L7.74963 17.3523L7.76247 17.3639L7.77557 17.3752L8.756 16.24ZM12.004 16.408L11.157 15.17L11.1412 15.1808L11.1258 15.192L12.004 16.408ZM12.256 14.728L11.1037 15.6883L11.1244 15.7131L11.1461 15.737L12.256 14.728ZM11.612 14.224L10.9412 15.5656L10.9621 15.5761L10.9834 15.5859L11.612 14.224ZM12.228 7.588L10.7292 7.64795L10.7301 7.67143L10.7318 7.69487L12.228 7.588ZM8.924 6.524L8.05897 5.29855L8.0413 5.31102L8.024 5.324L8.924 6.524ZM8.98 8.288L9.81205 7.03992L9.81205 7.03992L8.98 8.288ZM10.492 8.932L10.9663 7.50898L10.9484 7.503L10.9303 7.49747L10.492 8.932ZM11.724 9.324L11.2829 10.7577L12.4159 11.1063L13.0169 10.0845L11.724 9.324ZM4.04 7.196C4.04 6.16072 4.4557 5.23359 5.47619 4.35888L3.52381 2.08111C1.93097 3.44641 1.04 5.16994 1.04 7.196H4.04ZM5.47751 4.35775C6.42547 3.54331 7.97515 3.012 10.38 3.012V0.0119991C7.59552 0.0119991 5.2252 0.619356 3.52249 2.08225L5.47751 4.35775ZM10.38 3.012C12.6834 3.012 14.2175 3.52132 15.1973 4.32422L17.0987 2.00378C15.3905 0.604014 13.0792 0.0119991 10.38 0.0119991V3.012ZM15.2051 4.33061C16.2969 5.21303 16.6755 6.07615 16.6641 6.95252L19.6639 6.99148C19.6898 4.99319 18.7244 3.31764 17.0909 1.99739L15.2051 4.33061ZM16.6643 6.94139C16.6498 7.65221 16.4933 8.11322 16.2939 8.41701L18.8021 10.063C19.3867 9.17211 19.6409 8.12112 19.6637 7.0026L16.6643 6.94139ZM16.2939 8.41702C16.0411 8.80235 15.6279 9.21723 14.987 9.63924L16.637 12.1448C17.5268 11.5588 18.271 10.8723 18.8021 10.063L16.2939 8.41702ZM15.1074 12.2162C15.9499 12.6645 16.4987 13.1702 16.8404 13.7C17.1768 14.2215 17.364 14.8453 17.364 15.624H20.364C20.364 14.3307 20.0426 13.1299 19.3616 12.074C18.6859 11.0265 17.7088 10.2022 16.5166 9.5678L15.1074 12.2162ZM17.364 15.624C17.364 16.7739 16.8991 17.7455 15.786 18.6128L17.63 20.9792C19.3916 19.6065 20.364 17.7968 20.364 15.624H17.364ZM15.7882 18.6111C14.7478 19.4188 13.0022 19.948 10.296 19.948V22.948C13.3018 22.948 15.8309 22.3759 17.6278 20.9809L15.7882 18.6111ZM10.296 19.948C7.53816 19.948 5.80349 19.4226 4.80932 18.6434L2.95868 21.0046C4.72717 22.3907 7.26718 22.948 10.296 22.948V19.948ZM4.81711 18.6496C3.77804 17.824 3.34 16.8975 3.34 15.792H0.34C0.34 17.8972 1.26463 19.6587 2.95089 20.9984L4.81711 18.6496ZM3.34 15.792C3.34 15.0946 3.52523 14.4919 3.89561 13.9427L1.40839 12.2653C0.6961 13.3214 0.34 14.5108 0.34 15.792H3.34ZM3.90444 13.9295C4.32711 13.2882 4.80305 12.8558 5.32123 12.5777L3.90277 9.93426C2.89028 10.4775 2.05955 11.2772 1.39956 12.2785L3.90444 13.9295ZM5.53732 10.0754C4.48507 9.25068 4.04 8.3179 4.04 7.196H1.04C1.04 9.32209 1.97626 11.096 3.68668 12.4366L5.53732 10.0754ZM11.1086 12.4007C10.4839 12.2049 10.0131 12.0564 9.69466 11.9549C9.53491 11.9039 9.41692 11.8659 9.33823 11.84C9.29818 11.8269 9.27346 11.8185 9.2605 11.8141C9.25343 11.8116 9.25595 11.8124 9.26403 11.8154C9.26791 11.8169 9.27898 11.821 9.29409 11.8271C9.30126 11.83 9.3446 11.8472 9.39883 11.8744L8.05717 14.5576C8.11373 14.5859 8.16059 14.6047 8.17247 14.6095C8.19228 14.6175 8.20924 14.6239 8.22019 14.628C8.24242 14.6362 8.26382 14.6437 8.28037 14.6494C8.31467 14.6613 8.35615 14.6751 8.40127 14.69C8.49292 14.7201 8.62109 14.7614 8.78334 14.8131C9.10894 14.9169 9.58543 15.0671 10.2114 15.2633L11.1086 12.4007ZM7.54397 12.2951C6.9421 13.0689 6.64 13.9735 6.64 14.952H9.64C9.64 14.6239 9.7299 14.3711 9.91203 14.1369L7.54397 12.2951ZM6.64103 15.0075C6.67546 15.9371 7.07379 16.7408 7.74963 17.3523L9.76237 15.1277C9.65421 15.0298 9.64188 14.9749 9.63897 14.8965L6.64103 15.0075ZM7.77557 17.3752C8.56335 18.0556 9.58119 18.272 10.576 18.272V15.272C9.96548 15.272 9.76998 15.1337 9.73643 15.1048L7.77557 17.3752ZM10.576 18.272C11.3617 18.272 12.1936 18.1214 12.8822 17.624L11.1258 15.192C11.1424 15.1799 11.0223 15.272 10.576 15.272V18.272ZM12.851 17.646C13.5428 17.1726 14.036 16.4332 14.036 15.484H11.036C11.036 15.4218 11.0539 15.3319 11.1031 15.2466C11.1478 15.1689 11.1868 15.1496 11.157 15.17L12.851 17.646ZM14.036 15.484C14.036 14.8432 13.8237 14.2225 13.3659 13.719L11.1461 15.737C11.1145 15.7022 11.0816 15.6521 11.0594 15.592C11.0378 15.5337 11.036 15.4928 11.036 15.484H14.036ZM13.4083 13.7677C13.0922 13.3884 12.7034 13.0756 12.2406 12.8621L10.9834 15.5859C11.006 15.5963 11.0464 15.6196 11.1037 15.6883L13.4083 13.7677ZM12.2828 12.8824C11.9833 12.7326 11.6039 12.5791 11.1726 12.4223L10.1474 15.2417C10.5374 15.3835 10.7927 15.4914 10.9412 15.5656L12.2828 12.8824ZM13.7268 7.52805C13.6924 6.66737 13.3323 5.8481 12.5516 5.30594C11.855 4.82216 11.0034 4.688 10.212 4.688V7.688C10.4538 7.688 10.6209 7.71002 10.7287 7.73544C10.8357 7.76068 10.8595 7.78331 10.8404 7.77005C10.8132 7.75113 10.7715 7.70988 10.7429 7.65345C10.7175 7.60332 10.7269 7.58937 10.7292 7.64795L13.7268 7.52805ZM10.212 4.688C9.47926 4.688 8.7114 4.83801 8.05897 5.29855L9.78903 7.74945C9.77127 7.76198 9.86208 7.688 10.212 7.688V4.688ZM8.024 5.324C7.42302 5.77473 6.976 6.45962 6.976 7.336H9.976C9.976 7.42375 9.95247 7.527 9.90137 7.61962C9.85442 7.7047 9.80994 7.73455 9.824 7.724L8.024 5.324ZM6.976 7.336C6.976 8.23795 7.3862 9.02824 8.14795 9.53607L9.81205 7.03992C9.82518 7.04867 9.88116 7.09229 9.92768 7.18017C9.94904 7.2205 9.96199 7.25845 9.96909 7.28921C9.97599 7.31914 9.976 7.33625 9.976 7.336H6.976ZM8.14795 9.53607C8.66304 9.87947 9.32897 10.1451 10.0537 10.3665L10.9303 7.49747C10.311 7.30824 9.96896 7.14453 9.81205 7.03992L8.14795 9.53607ZM10.0177 10.355C10.3683 10.4719 10.7907 10.6062 11.2829 10.7577L12.1651 7.89033C11.6866 7.74309 11.2877 7.6161 10.9663 7.50898L10.0177 10.355ZM13.0169 10.0845C13.484 9.2904 13.7903 8.40695 13.7242 7.48113L10.7318 7.69487C10.7403 7.81438 10.7106 8.08827 10.4311 8.56347L13.0169 10.0845Z" fill="#EB2629"/>
</svg>
