<svg width="21" height="23" viewBox="0 0 21 23" fill="none" xmlns="http://www.w3.org/2000/svg">
<path d="M10.464 1.96V0.46H9.73747L9.28705 1.03006L10.464 1.96ZM16.792 1.96H18.292V0.46H16.792V1.96ZM16.792 13.44H15.292V14.94H16.792V13.44ZM19.172 13.44H20.672V11.94H19.172V13.44ZM19.172 18.452V19.952H20.672V18.452H19.172ZM16.792 18.452V16.952H15.292V18.452H16.792ZM16.792 21V22.5H18.292V21H16.792ZM10.968 21H9.468V22.5H10.968V21ZM10.968 18.452H12.468V16.952H10.968V18.452ZM1.504 18.452H0.00400001V19.952H1.504V18.452ZM1.504 13.3L0.327048 12.3701L0.00400001 12.7789V13.3H1.504ZM10.968 13.44V14.94H12.468V13.44H10.968ZM10.968 8.988H12.468V4.70657L9.79598 8.05186L10.968 8.988ZM7.412 13.44L6.23998 12.5039L4.29413 14.94H7.412V13.44ZM10.464 3.46H16.792V0.46H10.464V3.46ZM15.292 1.96V13.44H18.292V1.96H15.292ZM16.792 14.94H19.172V11.94H16.792V14.94ZM17.672 13.44V18.452H20.672V13.44H17.672ZM19.172 16.952H16.792V19.952H19.172V16.952ZM15.292 18.452V21H18.292V18.452H15.292ZM16.792 19.5H10.968V22.5H16.792V19.5ZM12.468 21V18.452H9.468V21H12.468ZM10.968 16.952H1.504V19.952H10.968V16.952ZM3.004 18.452V13.3H0.00400001V18.452H3.004ZM2.68095 14.2299L11.641 2.88994L9.28705 1.03006L0.327048 12.3701L2.68095 14.2299ZM12.468 13.44V8.988H9.468V13.44H12.468ZM9.79598 8.05186L6.23998 12.5039L8.58402 14.3761L12.14 9.92414L9.79598 8.05186ZM7.412 14.94H10.968V11.94H7.412V14.94Z" fill="#EB2629"/>
</svg>
