<svg width="19" height="23" viewBox="0 0 19 23" fill="none" xmlns="http://www.w3.org/2000/svg">
<path d="M2.54 3.556L1.73611 2.2896L1.04 2.73148V3.556H2.54ZM15.056 3.024L14.1872 4.24679L14.1947 4.2521L15.056 3.024ZM16.26 10.808L15.0632 9.90375L15.0567 9.91231L15.0504 9.92095L16.26 10.808ZM13.656 13.188L14.4277 14.4742L14.4584 14.4559L14.4881 14.4361L13.656 13.188ZM12.62 13.86L11.788 12.6119L11.777 12.6192L11.7662 12.6267L12.62 13.86ZM11.584 14.56L10.7787 13.2945L10.7508 13.3122L10.7238 13.3312L11.584 14.56ZM10.884 15.092L9.94696 13.9207H9.94696L10.884 15.092ZM10.268 15.708L9.03915 14.8478L7.38702 17.208H10.268V15.708ZM17.24 15.708H18.74V14.208H17.24V15.708ZM17.24 20.972V22.472H18.74V20.972H17.24ZM1.952 20.972H0.452V22.472H1.952V20.972ZM2.316 15.876L0.904208 15.3692L0.898406 15.3854L0.892975 15.4017L2.316 15.876ZM3.66 13.832L4.72066 14.8927H4.72066L3.66 13.832ZM5.116 12.516L5.99424 13.732L6.01586 13.7164L6.03691 13.7L5.116 12.516ZM6.992 11.228L7.81218 12.4839L7.94256 12.3988L8.05266 12.2887L6.992 11.228ZM7.076 11.172V12.672H7.69733L8.13667 12.2327L7.076 11.172ZM7.16 11.116L7.83081 12.4576L8.04854 12.3488L8.22066 12.1767L7.16 11.116ZM7.244 11.032L6.57317 9.69036L6.35546 9.79922L6.18334 9.97134L7.244 11.032ZM7.356 10.976L8.02681 12.3176L8.11997 12.2711L8.20579 12.2121L7.356 10.976ZM8.532 10.248L9.28158 11.5473L9.28917 11.5429L9.2967 11.5384L8.532 10.248ZM9.624 9.576L8.83785 8.29851L8.81464 8.3128L8.79195 8.32792L9.624 9.576ZM10.268 8.988L9.12292 8.01909L9.10036 8.04575L9.07907 8.07343L10.268 8.988ZM2.54 9.408H1.04V12.4028L3.43833 10.6093L2.54 9.408ZM3.34389 4.8224C5.24323 3.61673 7.34301 3.012 9.68 3.012V0.0119991C6.79032 0.0119991 4.1301 0.769939 1.73611 2.2896L3.34389 4.8224ZM9.68 3.012C11.6108 3.012 13.0785 3.45901 14.1872 4.24677L15.9248 1.80123C14.1962 0.572986 12.0799 0.0119991 9.68 0.0119991V3.012ZM14.1947 4.2521C15.1518 4.92328 15.712 5.96385 15.712 7.672H18.712C18.712 5.19882 17.8349 3.14072 15.9173 1.7959L14.1947 4.2521ZM15.712 7.672C15.712 8.65963 15.4661 9.37053 15.0632 9.90375L17.4568 11.7122C18.3233 10.5655 18.712 9.18571 18.712 7.672H15.712ZM15.0504 9.92095C14.5635 10.5849 13.8385 11.2636 12.824 11.9399L14.4881 14.4361C15.7135 13.6191 16.7245 12.7111 17.4696 11.695L15.0504 9.92095ZM12.8843 11.9018C12.6625 12.0348 12.2887 12.2781 11.788 12.6119L13.4521 15.1081C13.9593 14.7699 14.2762 14.5652 14.4277 14.4742L12.8843 11.9018ZM11.7662 12.6267C11.2808 12.9628 10.9569 13.1811 10.7787 13.2945L12.3893 15.8255C12.6218 15.6775 12.9886 15.4292 13.4738 15.0933L11.7662 12.6267ZM10.7238 13.3312C10.5005 13.4875 10.2396 13.6866 9.94696 13.9207L11.821 16.2633C12.0884 16.0494 12.2941 15.8939 12.4442 15.7888L10.7238 13.3312ZM9.94696 13.9207C9.61148 14.1891 9.28472 14.497 9.03915 14.8478L11.4968 16.5682C11.5126 16.5457 11.5965 16.4429 11.821 16.2633L9.94696 13.9207ZM10.268 17.208H17.24V14.208H10.268V17.208ZM15.74 15.708V20.972H18.74V15.708H15.74ZM17.24 19.472H1.952V22.472H17.24V19.472ZM3.452 20.972V18.368H0.452V20.972H3.452ZM3.452 18.368C3.452 17.5622 3.55699 16.8964 3.73903 16.3503L0.892975 15.4017C0.589676 16.3116 0.452 17.3071 0.452 18.368H3.452ZM3.72779 16.3828C3.90328 15.8939 4.21746 15.3959 4.72066 14.8927L2.59934 12.7713C1.83321 13.5375 1.25139 14.4021 0.904208 15.3692L3.72779 16.3828ZM4.72066 14.8927C5.3483 14.265 5.76223 13.8996 5.99424 13.732L4.23776 11.3C3.79777 11.6178 3.24103 12.1296 2.59934 12.7713L4.72066 14.8927ZM6.03691 13.7C6.31798 13.4814 6.89501 13.0829 7.81218 12.4839L6.17182 9.97209C5.25966 10.5678 4.58602 11.0279 4.19509 11.332L6.03691 13.7ZM8.05266 12.2887C8.03609 12.3052 7.97385 12.3669 7.87305 12.4341C7.82073 12.469 7.73405 12.5215 7.61734 12.5682C7.50368 12.6137 7.31576 12.672 7.076 12.672V9.672C6.61579 9.672 6.29766 9.87879 6.20895 9.93793C6.08015 10.0238 5.98524 10.1134 5.93134 10.1673L8.05266 12.2887ZM8.13667 12.2327C8.06018 12.3091 7.99004 12.3608 7.94305 12.3921C7.89476 12.4243 7.85517 12.4455 7.83081 12.4576L6.48919 9.77435C6.38126 9.82832 6.19443 9.93225 6.01533 10.1113L8.13667 12.2327ZM8.22066 12.1767C8.30781 12.0895 8.23618 12.1611 8.30466 12.0927L6.18334 9.97134C6.18145 9.97323 6.17065 9.98403 6.16759 9.98709C6.16661 9.98807 6.16637 9.98831 6.16538 9.9893C6.16533 9.98935 6.16528 9.9894 6.16524 9.98944C6.16519 9.98949 6.16514 9.98954 6.16509 9.98958C6.16505 9.98963 6.165 9.98968 6.16495 9.98973C6.16491 9.98977 6.16486 9.98982 6.16481 9.98987C6.16473 9.98995 6.16461 9.99007 6.16453 9.99015C6.16448 9.9902 6.16444 9.99024 6.16439 9.99029C6.16434 9.99034 6.16429 9.99039 6.16425 9.99043C6.16408 9.9906 6.16328 9.9914 6.16311 9.99157C6.16244 9.99224 6.15914 9.99554 6.1584 9.99628C6.15835 9.99633 6.1583 9.99638 6.15825 9.99643C6.1582 9.99648 6.15815 9.99653 6.1581 9.99658C6.15805 9.99663 6.158 9.99668 6.15795 9.99673C6.1579 9.99678 6.15785 9.99683 6.1578 9.99688C6.15771 9.99697 6.15759 9.99709 6.1575 9.99718C6.15745 9.99723 6.1574 9.99728 6.15734 9.99733C6.15729 9.99739 6.15724 9.99744 6.15719 9.99749C6.15692 9.99776 6.15685 9.99783 6.15658 9.9981C6.15653 9.99815 6.15648 9.9982 6.15643 9.99825C6.15638 9.9983 6.15633 9.99835 6.15628 9.9984C6.15623 9.99845 6.15617 9.99851 6.15612 9.99856C6.15607 9.99861 6.15602 9.99866 6.15597 9.99871C6.15487 9.99981 6.1546 10.0001 6.15348 10.0012C6.1533 10.0014 6.15241 10.0023 6.15222 10.0025C6.15212 10.0026 6.15167 10.003 6.15158 10.0031C6.15153 10.0032 6.15147 10.0032 6.15142 10.0033C6.15137 10.0033 6.15131 10.0034 6.15126 10.0034C6.15121 10.0035 6.15115 10.0035 6.1511 10.0036C6.15104 10.0036 6.15099 10.0037 6.15094 10.0037C6.15084 10.0038 6.15071 10.004 6.15062 10.0041C6.15056 10.0041 6.15051 10.0042 6.15045 10.0042C6.1504 10.0043 6.15035 10.0043 6.15029 10.0044C6.1501 10.0046 6.14984 10.0048 6.14965 10.005C6.14959 10.0051 6.14954 10.0051 6.14948 10.0052C6.14943 10.0052 6.14937 10.0053 6.14932 10.0054C6.14927 10.0054 6.14921 10.0055 6.14916 10.0055C6.1491 10.0056 6.14905 10.0056 6.14899 10.0057C6.14861 10.0061 6.14873 10.006 6.14834 10.0063C6.1422 10.0125 6.1329 10.0218 6.12559 10.0291C6.11826 10.0364 6.12053 10.0342 6.1129 10.0418C6.11272 10.042 6.11267 10.042 6.11249 10.0422C6.11242 10.0423 6.11236 10.0423 6.11229 10.0424C6.11222 10.0425 6.11215 10.0425 6.11208 10.0426C6.11184 10.0428 6.11191 10.0428 6.11167 10.043C6.1116 10.0431 6.11153 10.0431 6.11146 10.0432C6.11139 10.0433 6.11132 10.0434 6.11126 10.0434C6.11077 10.0439 6.11009 10.0446 6.10959 10.0451C6.1091 10.0456 6.10842 10.0463 6.10792 10.0468C6.10767 10.047 6.10648 10.0482 6.10623 10.0484C6.10525 10.0494 6.10039 10.0543 6.09934 10.0553L8.22066 12.1767ZM7.91483 12.3736C7.95216 12.355 7.98948 12.3363 8.02681 12.3176L6.68519 9.63435C6.64785 9.65302 6.61051 9.67169 6.57317 9.69036L7.91483 12.3736ZM8.20579 12.2121C8.45942 12.0377 8.8142 11.8169 9.28158 11.5473L7.78242 8.94872C7.27913 9.23908 6.84991 9.50364 6.50621 9.73994L8.20579 12.2121ZM9.2967 11.5384C9.80348 11.2381 10.1967 10.997 10.4561 10.8241L8.79195 8.32792C8.60335 8.45366 8.26852 8.66054 7.7673 8.95756L9.2967 11.5384ZM10.4101 10.8535C10.8192 10.6017 11.1675 10.2788 11.4569 9.90257L9.07907 8.07343C8.99518 8.18249 8.91411 8.25159 8.83785 8.29851L10.4101 10.8535ZM11.4131 9.95691C11.8146 9.48233 12.076 8.88664 12.076 8.204H9.076C9.076 8.15575 9.08576 8.10507 9.10287 8.06152C9.11899 8.02049 9.13328 8.00684 9.12292 8.01909L11.4131 9.95691ZM12.076 8.204C12.076 7.36073 11.7206 6.56069 10.9486 6.04997C10.2853 5.61119 9.4805 5.5 8.756 5.5V8.5C8.98135 8.5 9.13406 8.51907 9.22924 8.54006C9.32511 8.5612 9.33181 8.57744 9.2934 8.55203C9.24493 8.51997 9.17366 8.45338 9.12269 8.35222C9.07473 8.25703 9.076 8.19339 9.076 8.204H12.076ZM8.756 5.5C6.34004 5.5 3.95982 6.47318 1.64167 8.20675L3.43833 10.6093C5.41351 9.13216 7.1773 8.5 8.756 8.5V5.5ZM4.04 9.408V3.556H1.04V9.408H4.04Z" fill="#EB2629"/>
</svg>
