<svg width="19" height="23" viewBox="0 0 19 23" fill="none" xmlns="http://www.w3.org/2000/svg">
<path d="M1.616 1.96V0.46H0.116V1.96H1.616ZM17.156 1.96H18.656V0.46H17.156V1.96ZM17.156 6.048L18.5106 6.69231L18.656 6.38657V6.048H17.156ZM10.044 21V22.5H10.9916L11.3986 21.6443L10.044 21ZM3.072 21L1.7174 20.3557L0.697573 22.5H3.072V21ZM9.624 7.224L10.9786 7.86826L11.9984 5.724H9.624V7.224ZM1.616 7.224H0.116V8.724H1.616V7.224ZM1.616 3.46H17.156V0.46H1.616V3.46ZM15.656 1.96V6.048H18.656V1.96H15.656ZM15.8014 5.40369L8.68943 20.3557L11.3986 21.6443L18.5106 6.69231L15.8014 5.40369ZM10.044 19.5H3.072V22.5H10.044V19.5ZM4.4266 21.6443L10.9786 7.86826L8.2694 6.57974L1.7174 20.3557L4.4266 21.6443ZM9.624 5.724H1.616V8.724H9.624V5.724ZM3.116 7.224V1.96H0.116V7.224H3.116Z" fill="#EB2629"/>
</svg>
